HIERARCHY
ROOT Hips
{
	OFFSET 0.000000 0.000000 0.000000
	CHANNELS 6 Xposition Yposition Zposition Yrotation Xrotation Zrotation
	JOINT Chest
	{
		OFFSET 0.000000 -0.009281 11.569106
		CHANNELS 3 Yrotation Xrotation Zrotation
		JOINT Chest2
		{
			OFFSET -0.000000 0.016865 9.269641
			CHANNELS 3 Yrotation Xrotation Zrotation
			JOINT Chest3
			{
				OFFSET -0.000000 0.000001 8.374491
				CHANNELS 3 Yrotation Xrotation Zrotation
				JOINT Chest4
				{
					OFFSET -0.000000 0.000001 8.374493
					CHANNELS 3 Yrotation Xrotation Zrotation
					JOINT Neck
					{
						OFFSET -0.000000 0.000002 12.152554
						CHANNELS 3 Yrotation Xrotation Zrotation
						JOINT Head
						{
							OFFSET -0.000000 0.040101 7.802319
							CHANNELS 3 Yrotation Xrotation Zrotation
							End Site
							{
								OFFSET -0.000000 0.020947 14.853096
							}
						}
					}
					JOINT RightCollar
					{
						OFFSET 2.894404 0.000001 6.791374
						CHANNELS 3 Yrotation Xrotation Zrotation
						JOINT RightShoulder
						{
							OFFSET 13.574684 0.000001 0.000000
							CHANNELS 3 Yrotation Xrotation Zrotation
							JOINT RightElbow
							{
								OFFSET 23.923903 0.000002 0.000000
								CHANNELS 3 Yrotation Xrotation Zrotation
								JOINT RightWrist
								{
									OFFSET 19.846718 0.012767 0.000000
									CHANNELS 3 Yrotation Xrotation Zrotation
									End Site
									{
										OFFSET 14.973145 0.000001 0.000000
									}
								}
							}
						}
					}
					JOINT LeftCollar
					{
						OFFSET -2.894404 0.000001 6.791374
						CHANNELS 3 Yrotation Xrotation Zrotation
						JOINT LeftShoulder
						{
							OFFSET -13.574684 -0.000001 0.000000
							CHANNELS 3 Yrotation Xrotation Zrotation
							JOINT LeftElbow
							{
								OFFSET -23.923903 -0.000002 0.000000
								CHANNELS 3 Yrotation Xrotation Zrotation
								JOINT LeftWrist
								{
									OFFSET -19.846718 0.012763 0.000000
									CHANNELS 3 Yrotation Xrotation Zrotation
									End Site
									{
										OFFSET -14.973145 -0.000001 0.000000
									}
								}
							}
						}
					}
				}
			}
		}
	}
	JOINT RightHip
	{
		OFFSET 9.469263 0.004643 0.045487
		CHANNELS 3 Yrotation Xrotation Zrotation
		JOINT RightKnee
		{
			OFFSET 0.000000 0.002661 -40.478676
			CHANNELS 3 Yrotation Xrotation Zrotation
			JOINT RightAnkle
			{
				OFFSET 0.000000 0.049106 -35.224068
				CHANNELS 3 Yrotation Xrotation Zrotation
				JOINT RightToe
				{
					OFFSET -0.000001 12.539529 -6.151390
					CHANNELS 3 Yrotation Xrotation Zrotation
					End Site
					{
						OFFSET -0.000001 5.044994 -1.291870
					}
				}
			}
		}
	}
	JOINT LeftHip
	{
		OFFSET -9.469263 0.004641 0.045487
		CHANNELS 3 Yrotation Xrotation Zrotation
		JOINT LeftKnee
		{
			OFFSET 0.000000 0.002661 -40.478676
			CHANNELS 3 Yrotation Xrotation Zrotation
			JOINT LeftAnkle
			{
				OFFSET 0.000000 0.049106 -35.224068
				CHANNELS 3 Yrotation Xrotation Zrotation
				JOINT LeftToe
				{
					OFFSET -0.000001 12.539529 -6.151390
					CHANNELS 3 Yrotation Xrotation Zrotation
					End Site
					{
						OFFSET -0.000001 5.044994 -1.291870
					}
				}
			}
		}
	}
}
MOTION
Frames: 6
Frame Time: 0.016667
10.920830 8.310817 78.336128 -8.942772 1.355427 -132.702366 8.806562 -6.366705 -4.569953 3.891341 -2.854595 -1.828880 3.891341 -2.854596 -1.828886 2.909384 -2.152713 -1.353256 -11.677603 -12.126673 11.387933 -17.440234 14.059040 16.764520 4.302627 7.445348 0.458006 33.474976 -11.765581 -5.594984 57.319528 -61.934018 51.499579 37.091291 -3.345806 -23.073559 -1.924565 -4.514367 -11.007823 -31.397639 19.260502 -70.653888 -3.956539 -37.482849 -93.209761 1.293164 -28.479068 -0.302534 -6.210028 16.243967 16.141783 -0.392726 -46.115286 14.486729 -3.639065 24.017179 -4.586508 0.564580 0.212436 -0.013278 -9.330528 4.490517 4.996329 -11.352971 -31.445819 23.996456 8.366489 24.197509 6.997618 -0.033200 -0.075098 0.015246 
11.064946 8.355659 78.134308 -9.030518 1.527477 -132.903324 8.812084 -6.437432 -4.696078 3.915398 -2.878630 -1.867227 3.915400 -2.878628 -1.867229 2.927165 -2.171058 -1.381737 -11.882044 -11.954652 11.630411 -17.721433 14.391997 17.133137 4.332871 7.304706 0.562548 33.429360 -11.612862 -5.564746 57.282898 -61.963879 51.610771 37.162065 -3.397166 -23.119915 -1.872003 -4.691391 -10.904421 -30.954807 18.956220 -70.490011 -1.050454 -37.565241 -95.701920 5.277612 -30.859116 -3.486453 -6.283604 16.688071 16.302138 -0.644901 -47.034800 14.744189 -3.803183 24.517493 -4.620764 0.573218 0.184041 -0.075729 -9.513488 4.778880 5.034676 -11.726855 -32.055078 24.367369 8.459266 24.719971 7.134907 -0.033197 -0.082883 0.023800 
11.198790 8.407395 77.939613 -9.070825 1.715807 -133.114117 8.822346 -6.478798 -4.769523 3.942032 -2.910401 -1.907592 3.942033 -2.910400 -1.907589 2.946830 -2.195235 -1.411670 -12.085117 -11.769575 11.872832 -17.999314 14.749107 17.501796 4.356265 7.231365 0.678840 33.384496 -11.490040 -5.581657 57.130431 -61.995079 51.845036 37.235589 -3.440299 -23.156889 -1.878061 -4.766394 -10.736576 -30.670299 18.604240 -70.287025 1.251259 -37.662028 -97.587264 9.719554 -32.465248 -7.797324 -6.376376 17.175697 16.528438 -0.748101 -47.907227 14.898038 -3.958449 24.956948 -4.666846 0.545169 0.176371 -0.166799 -9.681639 5.112738 5.083015 -12.069152 -32.641211 24.716588 8.538829 25.214149 7.258151 -0.031058 -0.083012 0.036352 
11.333809 8.453981 77.757118 -9.103064 1.869169 -133.273370 8.831840 -6.513392 -4.837889 3.965778 -2.937714 -1.947292 3.965781 -2.937713 -1.947290 2.964353 -2.216053 -1.441144 -12.252485 -11.592972 12.103899 -18.213709 15.089066 17.864647 4.396547 7.157171 0.767444 33.339591 -11.379085 -5.625548 56.941453 -62.022414 52.130282 37.283274 -3.494242 -23.195968 -1.853867 -4.945885 -10.614017 -30.577760 18.501523 -70.075091 2.820581 -38.034967 -98.924683 14.785587 -33.417889 -12.938880 -6.485802 17.608859 16.698112 -0.778996 -48.708111 14.991866 -4.098868 25.361066 -4.655495 0.495530 0.172165 -0.237439 -9.854010 5.411428 5.110739 -12.320804 -33.199292 24.993921 8.599913 25.677365 7.390467 -0.029135 -0.083303 0.047933 
11.470141 8.504260 77.587029 -9.112490 2.007435 -133.363979 8.844498 -6.537051 -4.904415 3.988311 -2.964086 -1.988244 3.988313 -2.964083 -1.988249 2.980955 -2.236176 -1.471568 -12.386470 -11.414207 12.321035 -18.369700 15.431337 18.215619 4.452013 7.146916 0.862743 33.289495 -11.259039 -5.729516 56.810433 -62.054277 52.363116 37.310988 -3.562629 -23.242956 -1.797177 -5.123240 -10.498359 -30.491867 18.529371 -69.886776 3.688238 -38.467171 -99.786810 19.780257 -33.658540 -18.074221 -6.638847 18.015973 16.785897 -0.705338 -49.448159 15.003035 -4.214696 25.732565 -4.586632 0.416941 0.178519 -0.316395 -10.020361 5.719979 5.086315 -12.503103 -33.773561 25.223764 8.613437 26.113044 7.472148 -0.015638 -0.067323 0.080218 
11.598657 8.533009 77.435310 -9.090808 2.088081 -133.340196 8.897496 -6.555748 -5.002868 4.008886 -2.985229 -2.024569 4.008887 -2.985228 -2.024567 2.996127 -2.252340 -1.498564 -12.491468 -11.244495 12.519601 -18.478051 15.755121 18.544452 4.523135 7.211536 0.947537 33.242800 -11.153966 -5.917987 56.717283 -62.089083 52.554713 37.373644 -3.595934 -23.290124 -1.747777 -5.206905 -10.364152 -30.301844 18.377350 -69.658197 4.398956 -38.748913 -100.463443 24.260432 -33.199907 -22.868856 -6.784354 18.314999 16.690110 -0.624605 -50.049075 15.052788 -4.311733 26.075439 -4.518625 0.301211 0.153928 -0.411143 -10.127319 5.972895 4.984328 -12.588383 -34.314874 25.414657 8.492108 26.511670 7.391610 0.046137 -0.047046 0.217342 
